<svg width="40" height="40" viewBox="0 0 40 40" fill="none" xmlns="http://www.w3.org/2000/svg">
<g clip-path="url(#clip0_13_7077)">
<path d="M28.5417 5H10.4583C6.89333 5 4 7.89333 4 11.4583V29.5417C4 33.1067 6.89333 36 10.4583 36H28.5417C32.1067 36 35 33.1067 35 29.5417V11.4583C35 7.89333 32.1067 5 28.5417 5ZM10.4583 7.58333H28.5417C30.6729 7.58333 32.4167 9.32708 32.4167 11.4583V15.3462H6.58333V11.4583C6.58333 9.32708 8.32708 7.58333 10.4583 7.58333ZM6.58333 29.5417V17.9296H14.3979V33.4167H10.4583C8.32708 33.4167 6.58333 31.6729 6.58333 29.5417ZM28.5417 33.4167H16.9812V17.9296H32.4167V29.5417C32.4167 31.6729 30.6729 33.4167 28.5417 33.4167Z" fill="white"/>
</g>
<defs>
<clipPath id="clip0_13_7077">
<rect width="40" height="40" fill="white"/>
</clipPath>
</defs>
</svg>
