<svg width="40" height="40" viewBox="0 0 40 40" fill="none" xmlns="http://www.w3.org/2000/svg">
<g clip-path="url(#clip0_13_7201)">
<path fill-rule="evenodd" clip-rule="evenodd" d="M6.6 4C7.48 4 8.2 4.72 8.2 5.6V26.72C8.2 28.096 8.2 29.024 8.264 29.744C8.328 30.448 8.424 30.8 8.552 31.056C8.856 31.664 9.352 32.144 9.944 32.448C10.2 32.576 10.552 32.672 11.256 32.736C11.976 32.8 12.904 32.8 14.28 32.8H35.4C36.28 32.8 37 33.52 37 34.4C37 35.28 36.28 36 35.4 36H14.216C12.936 36 11.864 36 11 35.936C10.104 35.856 9.272 35.712 8.504 35.312C7.304 34.704 6.328 33.712 5.704 32.512C5.304 31.728 5.144 30.912 5.08 30.016C5 29.136 5 28.08 5 26.784V5.6C5 4.72 5.72 4 6.6 4ZM27.4 13.6C27.4 12.72 28.12 12 29 12H29.016C29.896 12 30.616 12.72 30.616 13.6C30.616 14.48 29.896 15.2 29.016 15.2H29C28.12 15.2 27.4 14.48 27.4 13.6ZM16.2 16.8C16.2 15.92 16.92 15.2 17.8 15.2H17.816C18.696 15.2 19.416 15.92 19.416 16.8C19.416 17.68 18.696 18.4 17.816 18.4H17.8C16.92 18.4 16.2 17.68 16.2 16.8ZM25.8 21.6C25.8 20.72 26.52 20 27.4 20H27.416C28.296 20 29.016 20.72 29.016 21.6C29.016 22.48 28.296 23.2 27.416 23.2H27.4C26.52 23.2 25.8 22.48 25.8 21.6ZM14.6 24.8C14.6 23.92 15.32 23.2 16.2 23.2H16.216C17.096 23.2 17.816 23.92 17.816 24.8C17.816 25.68 17.096 26.4 16.216 26.4H16.2C15.32 26.4 14.6 25.68 14.6 24.8Z" fill="white"/>
</g>
<defs>
<clipPath id="clip0_13_7201">
<rect width="40" height="40" fill="white"/>
</clipPath>
</defs>
</svg>
