<svg width="40" height="40" viewBox="0 0 40 40" fill="none" xmlns="http://www.w3.org/2000/svg">
<g clip-path="url(#clip0_18_2067)">
<path d="M35.2266 33.7109H4.28906V2.77344C4.28906 2.3851 3.9742 2.07031 3.58594 2.07031H2.17969C1.79142 2.07031 1.47656 2.3851 1.47656 2.77344C1.47656 3.16177 1.79142 3.47656 2.17969 3.47656H2.88281V5.58594H0.773438C0.385172 5.58594 0.0703125 5.90073 0.0703125 6.28906C0.0703125 6.6774 0.385172 6.99219 0.773438 6.99219H2.88281V9.10156H2.17969C1.79142 9.10156 1.47656 9.41635 1.47656 9.80469C1.47656 10.193 1.79142 10.5078 2.17969 10.5078H2.88281V12.6172H0.773438C0.385172 12.6172 0.0703125 12.932 0.0703125 13.3203C0.0703125 13.7086 0.385172 14.0234 0.773438 14.0234H2.88281V16.1328H2.17969C1.79142 16.1328 1.47656 16.4476 1.47656 16.8359C1.47656 17.2243 1.79142 17.5391 2.17969 17.5391H2.88281V19.6484H0.773438C0.385172 19.6484 0.0703125 19.9633 0.0703125 20.3516C0.0703125 20.7398 0.385172 21.0547 0.773438 21.0547H2.88281V23.1641H2.17969C1.79142 23.1641 1.47656 23.4789 1.47656 23.8672C1.47656 24.2555 1.79142 24.5703 2.17969 24.5703H2.88281V26.6797H0.773438C0.385172 26.6797 0.0703125 26.9945 0.0703125 27.3828C0.0703125 27.7711 0.385172 28.0859 0.773438 28.0859H2.88281V30.1953H2.17969C1.79142 30.1953 1.47656 30.5102 1.47656 30.8984C1.47656 31.2867 1.79142 31.6016 2.17969 31.6016H2.88281V33.7109H0.773438C0.385172 33.7109 0.0703125 34.0258 0.0703125 34.4141C0.0703125 34.8023 0.385172 35.1172 0.773438 35.1172H2.88281V37.2266C2.88281 37.6148 3.19767 37.9297 3.58594 37.9297C3.9742 37.9297 4.28906 37.6148 4.28906 37.2266V35.1172H6.39844V35.8203C6.39844 36.2086 6.7133 36.5234 7.10156 36.5234C7.48983 36.5234 7.80469 36.2086 7.80469 35.8203V35.1172H9.91406V37.2266C9.91406 37.6148 10.2289 37.9297 10.6172 37.9297C11.0055 37.9297 11.3203 37.6148 11.3203 37.2266V35.1172H13.4297V35.8203C13.4297 36.2086 13.7445 36.5234 14.1328 36.5234C14.5211 36.5234 14.8359 36.2086 14.8359 35.8203V35.1172H16.9453V37.2266C16.9453 37.6148 17.2602 37.9297 17.6484 37.9297C18.0367 37.9297 18.3516 37.6148 18.3516 37.2266V35.1172H20.4609V35.8203C20.4609 36.2086 20.7758 36.5234 21.1641 36.5234C21.5523 36.5234 21.8672 36.2086 21.8672 35.8203V35.1172H23.9766V37.2266C23.9766 37.6148 24.2914 37.9297 24.6797 37.9297C25.068 37.9297 25.3828 37.6148 25.3828 37.2266V35.1172H27.4922V35.8203C27.4922 36.2086 27.807 36.5234 28.1953 36.5234C28.5836 36.5234 28.8984 36.2086 28.8984 35.8203V35.1172H31.0078V37.2266C31.0078 37.6148 31.3227 37.9297 31.7109 37.9297C32.0992 37.9297 32.4141 37.6148 32.4141 37.2266V35.1172H34.5234V35.8203C34.5234 36.2086 34.8383 36.5234 35.2266 36.5234C35.6148 36.5234 35.9297 36.2086 35.9297 35.8203V34.4141C35.9297 34.0258 35.6148 33.7109 35.2266 33.7109Z" fill="white"/>
<path d="M35.5398 9.1752C35.301 9.05637 35.0155 9.08288 34.8026 9.24375C33.9281 9.90476 33.3246 9.96994 32.6258 10.0454C31.8338 10.1309 30.9363 10.2278 29.7513 11.1239C28.5668 12.0194 28.2289 12.8565 27.9307 13.595C27.7308 14.0905 27.558 14.5183 27.1224 14.9791C25.5053 16.6908 24.9471 17.4863 24.5129 18.0122C23.7456 18.9755 22.8521 19.8223 21.8615 20.5337C21.715 20.4351 21.5733 20.3273 21.4375 20.2097C16.9514 16.3225 9.87054 16.7246 5.8782 21.1168C5.76049 21.2463 5.69531 21.4149 5.69531 21.5898V31.6016C5.69531 31.991 6.01432 32.3047 6.39844 32.3047H35.2266C35.6148 32.3047 35.9297 31.9898 35.9297 31.6016V9.8047C35.9297 9.53794 35.7787 9.29409 35.5398 9.1752ZM26.1367 18.2317C26.6969 17.5286 27.3349 16.802 28.1445 15.9451C28.7626 15.2913 29.0135 14.6698 29.2348 14.1215C29.498 13.4696 29.7253 12.9066 30.5995 12.2457C31.4741 11.5842 32.0778 11.519 32.7768 11.4435C33.2964 11.3874 33.8615 11.3264 34.5235 11.0379V21.4411C32.5728 19.189 29.2693 18.7777 26.8253 20.4885C25.7809 21.2199 24.5145 21.437 23.3436 21.1725C25.0071 19.8305 25.8529 18.5467 26.1367 18.2317ZM7.10156 29.3709V21.8675C10.6097 18.2291 16.6705 17.9399 20.5166 21.2726C20.5428 21.2952 20.5697 21.3165 20.5961 21.3386C19.3939 22.0113 18.0823 22.5008 16.7012 22.777C13.0244 23.5127 9.71944 25.6316 7.5169 28.7776L7.10156 29.3709Z" fill="white"/>
</g>
<defs>
<clipPath id="clip0_18_2067">
<rect width="36" height="36" fill="white" transform="translate(0 2)"/>
</clipPath>
</defs>
</svg>
