<svg width="40" height="40" viewBox="0 0 40 40" fill="none" xmlns="http://www.w3.org/2000/svg">
<path d="M33.5 28.0345V18.8748H21.125V11.965C22.1855 11.6912 23.1097 11.04 23.7244 10.1335C24.3391 9.22701 24.6021 8.12743 24.4641 7.04089C24.3261 5.95435 23.7966 4.95544 22.9748 4.2314C22.1529 3.50737 21.0953 3.10791 20 3.10791C18.9047 3.10791 17.8471 3.50737 17.0252 4.2314C16.2034 4.95544 15.6739 5.95435 15.5359 7.04089C15.3979 8.12743 15.6609 9.22701 16.2756 10.1335C16.8903 11.04 17.8145 11.6912 18.875 11.965V18.8748H6.5V28.0345C5.43951 28.3083 4.51529 28.9595 3.90057 29.866C3.28586 30.7725 3.02286 31.8721 3.16087 32.9586C3.29887 34.0452 3.82842 35.0441 4.65024 35.7681C5.47206 36.4922 6.52973 36.8916 7.625 36.8916C8.72027 36.8916 9.77794 36.4922 10.5998 35.7681C11.4216 35.0441 11.9511 34.0452 12.0891 32.9586C12.2271 31.8721 11.9641 30.7725 11.3494 29.866C10.7347 28.9595 9.81049 28.3083 8.75 28.0345V21.1248H18.875V28.0345C17.8145 28.3083 16.8903 28.9595 16.2756 29.866C15.6609 30.7725 15.3979 31.8721 15.5359 32.9586C15.6739 34.0452 16.2034 35.0441 17.0252 35.7681C17.8471 36.4922 18.9047 36.8916 20 36.8916C21.0953 36.8916 22.1529 36.4922 22.9748 35.7681C23.7966 35.0441 24.3261 34.0452 24.4641 32.9586C24.6021 31.8721 24.3391 30.7725 23.7244 29.866C23.1097 28.9595 22.1855 28.3083 21.125 28.0345V21.1248H31.25V28.0345C30.1895 28.3083 29.2653 28.9595 28.6506 29.866C28.0359 30.7725 27.7729 31.8721 27.9109 32.9586C28.0489 34.0452 28.5784 35.0441 29.4002 35.7681C30.2221 36.4922 31.2797 36.8916 32.375 36.8916C33.4703 36.8916 34.5279 36.4922 35.3498 35.7681C36.1716 35.0441 36.7011 34.0452 36.8391 32.9586C36.9771 31.8721 36.7141 30.7725 36.0994 29.866C35.4847 28.9595 34.5605 28.3083 33.5 28.0345ZM9.875 32.3748C9.875 32.8198 9.74304 33.2548 9.49581 33.6248C9.24857 33.9948 8.89717 34.2832 8.48604 34.4535C8.0749 34.6238 7.6225 34.6684 7.18605 34.5815C6.74959 34.4947 6.34868 34.2804 6.03401 33.9658C5.71934 33.6511 5.50505 33.2502 5.41823 32.8137C5.33142 32.3773 5.37597 31.9249 5.54627 31.5137C5.71657 31.1026 6.00496 30.7512 6.37497 30.504C6.74498 30.2567 7.17999 30.1248 7.625 30.1248C8.22155 30.1254 8.7935 30.3626 9.21533 30.7844C9.63716 31.2063 9.8744 31.7782 9.875 32.3748ZM22.25 32.3748C22.25 32.8198 22.118 33.2548 21.8708 33.6248C21.6236 33.9948 21.2722 34.2832 20.861 34.4535C20.4499 34.6238 19.9975 34.6684 19.561 34.5815C19.1246 34.4947 18.7237 34.2804 18.409 33.9658C18.0943 33.6511 17.88 33.2502 17.7932 32.8137C17.7064 32.3773 17.751 31.9249 17.9213 31.5137C18.0916 31.1026 18.38 30.7512 18.75 30.504C19.12 30.2567 19.555 30.1248 20 30.1248C20.5966 30.1254 21.1685 30.3626 21.5903 30.7844C22.0122 31.2063 22.2494 31.7782 22.25 32.3748ZM20 9.87477C19.555 9.87477 19.12 9.74281 18.75 9.49557C18.38 9.24834 18.0916 8.89694 17.9213 8.4858C17.751 8.07467 17.7064 7.62227 17.7932 7.18581C17.88 6.74936 18.0943 6.34844 18.409 6.03378C18.7237 5.71911 19.1246 5.50482 19.561 5.418C19.9975 5.33118 20.4499 5.37574 20.861 5.54604C21.2722 5.71633 21.6236 6.00472 21.8708 6.37473C22.118 6.74474 22.25 7.17976 22.25 7.62477C22.2494 8.22132 22.0122 8.79327 21.5903 9.2151C21.1685 9.63693 20.5966 9.87417 20 9.87477ZM32.375 34.6248C31.93 34.6248 31.495 34.4928 31.125 34.2456C30.755 33.9983 30.4666 33.6469 30.2963 33.2358C30.126 32.8247 30.0814 32.3723 30.1682 31.9358C30.255 31.4994 30.4693 31.0984 30.784 30.7838C31.0987 30.4691 31.4996 30.2548 31.936 30.168C32.3725 30.0812 32.8249 30.1257 33.236 30.296C33.6472 30.4663 33.9986 30.7547 34.2458 31.1247C34.493 31.4947 34.625 31.9298 34.625 32.3748C34.6244 32.9713 34.3872 33.5433 33.9653 33.9651C33.5435 34.3869 32.9716 34.6242 32.375 34.6248Z" fill="white"/>
</svg>
