<svg width="40" height="40" viewBox="0 0 40 40" fill="none" xmlns="http://www.w3.org/2000/svg">
<path d="M20 4.0625C16.8479 4.0625 13.7665 4.99722 11.1456 6.74845C8.52469 8.49969 6.48194 10.9888 5.27567 13.901C4.0694 16.8132 3.75378 20.0177 4.36873 23.1093C4.98369 26.2008 6.50159 29.0406 8.73048 31.2695C10.9594 33.4984 13.7992 35.0163 16.8907 35.6313C19.9823 36.2462 23.1868 35.9306 26.099 34.7243C29.0112 33.5181 31.5003 31.4753 33.2515 28.8544C35.0028 26.2335 35.9375 23.1521 35.9375 20C35.9329 15.7745 34.2523 11.7234 31.2644 8.73558C28.2766 5.74772 24.2255 4.06712 20 4.0625ZM21.0625 6.24133C22.521 6.34917 23.9529 6.6897 25.3038 7.25H21.0625V6.24133ZM21.0625 9.375H28.8132C29.4579 9.91171 30.0529 10.5055 30.5909 11.1493H21.0625V9.375ZM20 33.8125C16.4294 33.8142 12.997 32.4325 10.4234 29.9574C7.84984 27.4822 6.33532 24.1063 6.19782 20.5383C6.06032 16.9704 7.31054 13.4879 9.68599 10.822C12.0614 8.15622 15.3773 6.51441 18.9375 6.24133V21.0625H33.7587C33.489 24.5285 31.9232 27.7657 29.3732 30.1287C26.8233 32.4917 23.4765 33.807 20 33.8125ZM33.7587 18.9375H21.0625V17.1632H33.5168C33.6358 17.7488 33.7166 18.3415 33.7587 18.9375ZM32.8754 15.0382H21.0625V13.2743H32.0533C32.3686 13.8421 32.6434 14.4316 32.8754 15.0382Z" fill="white"/>
</svg>
