<svg width="40" height="40" viewBox="0 0 40 40" fill="none" xmlns="http://www.w3.org/2000/svg">
<g clip-path="url(#clip0_18_2084)">
<path d="M37.9325 19.1849C37.925 19.1701 37.9175 19.1478 37.91 19.133L29.2814 4.36331C29.2739 4.34848 29.2589 4.33365 29.2439 4.31882C29.2288 4.29658 29.2138 4.28175 29.2063 4.26692C29.1463 4.20019 29.0788 4.13346 29.0038 4.09639C28.9287 4.0519 28.8462 4.02966 28.7561 4.01483C28.7336 4.00741 28.7111 4.00741 28.6886 4.00741C28.6661 4.00741 28.6511 4 28.6286 4H11.3714C11.3489 4 11.3339 4.00741 11.3114 4.00741C11.2889 4.00741 11.2664 4.01483 11.2439 4.01483C11.1538 4.02966 11.0713 4.0519 10.9962 4.09639C10.9212 4.14088 10.8537 4.20019 10.8012 4.26692C10.7862 4.28175 10.7712 4.30399 10.7637 4.31882C10.7486 4.33365 10.7336 4.34848 10.7261 4.36331L2.09004 19.133C2.08253 19.1478 2.07503 19.1701 2.06753 19.1849C2.06002 19.2071 2.05252 19.222 2.04502 19.2442C1.98499 19.4073 1.98499 19.5927 2.04502 19.7558C2.05252 19.778 2.06002 19.7929 2.06753 19.8151C2.07503 19.8299 2.08253 19.8522 2.09004 19.867L10.7186 34.6367C10.7261 34.6515 10.7411 34.6663 10.7561 34.6812C10.7712 34.7034 10.7862 34.7183 10.7937 34.7331C10.8537 34.7998 10.9137 34.8591 10.9887 34.9036C10.9962 34.9036 11.0038 34.911 11.0113 34.911C11.0638 34.9407 11.1163 34.9629 11.1763 34.9778C11.2439 34.9926 11.3039 35 11.3714 35H28.6286C28.6961 35 28.7561 34.9926 28.8237 34.9778C28.8837 34.9629 28.9362 34.9407 28.9887 34.911C28.9963 34.911 29.0038 34.9036 29.0113 34.9036C29.0863 34.8591 29.1538 34.7998 29.2063 34.7331C29.2213 34.7183 29.2363 34.696 29.2439 34.6812C29.2589 34.6663 29.2739 34.6515 29.2814 34.6367L37.91 19.867C37.9175 19.8522 37.925 19.8299 37.9325 19.8151C37.94 19.7929 37.9475 19.778 37.955 19.7558C38.015 19.5927 38.015 19.4147 37.955 19.2442C37.9475 19.2294 37.94 19.2071 37.9325 19.1849ZM27.3306 5.47548L25.1622 9.18273H14.8378L12.6694 5.47548H27.3306ZM22.1309 14.3729H17.8691L15.7007 10.6656H24.2918L22.1309 14.3729ZM22.1309 15.8558L24.2618 19.5037L22.1309 23.1516H17.8691L15.7382 19.5037L17.8691 15.8558H22.1309ZM16.5711 15.1143L14.4402 18.7623H10.1109L14.4102 11.4071L16.5711 15.1143ZM14.4402 20.2452L16.5711 23.8931L14.4027 27.6003L10.1034 20.2452H14.4402ZM17.8691 24.6345H22.1309L24.2993 28.3418H15.7007L17.8691 24.6345ZM23.4289 23.8931L25.5598 20.2452H29.8891L25.5898 27.6003L23.4289 23.8931ZM25.5598 18.7623L23.4289 15.1143L25.5973 11.4071L29.8966 18.7623H25.5598ZM11.3714 6.21693L13.5398 9.92418L8.37766 18.7623H4.04085L11.3714 6.21693ZM11.3714 32.7905L4.04085 20.2452H8.37015L13.5323 29.0832L11.3714 32.7905ZM12.6694 33.5319L14.8378 29.8247H25.1622L27.3306 33.5319H12.6694ZM28.6286 32.7905L26.4602 29.0832L31.6223 20.2452H35.9516L28.6286 32.7905ZM31.6223 18.7623L26.4602 9.92418L28.6286 6.21693L35.9592 18.7623H31.6223Z" fill="white"/>
</g>
<defs>
<clipPath id="clip0_18_2084">
<rect width="40" height="40" fill="white"/>
</clipPath>
</defs>
</svg>
