<svg width="40" height="40" viewBox="0 0 40 40" fill="none" xmlns="http://www.w3.org/2000/svg">
<path d="M7.31042 33.3678H30.4031C32.0292 33.3678 33.349 32.048 33.349 30.4219V28.0813H35.6823C36.4642 28.0813 37.2143 27.7712 37.7679 27.2189C38.3215 26.6667 38.6335 25.9174 38.6354 25.1355V6.59277C38.6354 4.96673 37.3083 3.63965 35.6823 3.63965H12.5969C11.8149 3.64158 11.0657 3.95356 10.5134 4.50717C9.96117 5.06078 9.65104 5.81082 9.65104 6.59277V8.92611H7.31042C5.68437 8.92611 4.36458 10.2459 4.36458 11.8719V30.4292C4.36458 32.0407 5.68437 33.3678 7.31042 33.3678ZM6.55208 30.4219V28.8907L12.75 22.6928L15.149 25.0917L9.06042 31.1803H7.31042C6.89479 31.1803 6.55208 30.8376 6.55208 30.4219ZM30.4031 31.1803H12.1594L17.475 25.8646L23.5927 19.7469L31.1615 27.3157V30.4146C31.1615 30.8376 30.826 31.1803 30.4031 31.1803ZM11.8385 6.59277C11.8385 6.16986 12.1812 5.82715 12.5969 5.82715H35.6823C36.1125 5.82715 36.4479 6.16257 36.4479 6.59277V25.1355C36.4479 25.5511 36.1052 25.8938 35.6823 25.8938H33.349V11.8646C33.349 10.2386 32.0292 8.91882 30.4031 8.91882H11.8385V6.59277ZM6.55208 11.8646C6.55208 11.449 6.89479 11.1063 7.31042 11.1063H30.4104C30.826 11.1063 31.1688 11.449 31.1688 11.8646V24.224L24.3729 17.4282C23.9646 17.0199 23.2354 17.0199 22.8271 17.4282L16.7094 23.5459L13.5375 20.374C13.1292 19.9657 12.4 19.9657 11.9917 20.374L6.55208 25.799V11.8646Z" fill="white"/>
<path d="M16.7021 19.295C18.5979 19.295 20.1365 17.7565 20.1365 15.8606C20.1365 13.9648 18.5979 12.4263 16.7021 12.4263C14.8062 12.4263 13.2677 13.9648 13.2677 15.8606C13.2677 17.7565 14.8062 19.295 16.7021 19.295ZM16.7021 14.6065C17.3875 14.6065 17.949 15.1679 17.949 15.8534C17.949 16.5388 17.3875 17.1002 16.7021 17.1002C16.0167 17.1002 15.4552 16.5388 15.4552 15.8534C15.4552 15.1679 16.0094 14.6065 16.7021 14.6065Z" fill="white"/>
</svg>
