<svg width="40" height="40" viewBox="0 0 40 40" fill="none" xmlns="http://www.w3.org/2000/svg">
<path d="M25.9688 13.9375C22.9062 13.9375 20.5 16.3438 20.5 19.4062C20.5 23.125 24.7656 26.5156 25.3125 26.8437C25.5312 26.9531 25.75 27.0625 25.9688 27.0625C26.1875 27.0625 26.4063 26.9531 26.625 26.8437C27.0625 26.5156 31.4375 23.125 31.4375 19.4062C31.4375 16.3438 29.0312 13.9375 25.9688 13.9375ZM25.9688 24.5469C24.6562 23.4531 22.6875 21.2656 22.6875 19.4062C22.6875 17.5469 24.1094 16.125 25.9688 16.125C27.8281 16.125 29.25 17.5469 29.25 19.4062C29.25 21.2656 27.2812 23.4531 25.9688 24.5469Z" fill="white"/>
<path d="M32.5312 5.1875H8.46875C6.60938 5.1875 5.1875 6.60938 5.1875 8.46875V32.5312C5.1875 34.3906 6.60938 35.8125 8.46875 35.8125H32.5312C34.3906 35.8125 35.8125 34.3906 35.8125 32.5312V8.46875C35.8125 6.60938 34.3906 5.1875 32.5312 5.1875ZM8.46875 7.375H23.3438L12.8438 17.875L7.375 12.4063V8.46875C7.375 7.8125 7.8125 7.375 8.46875 7.375ZM13.5 21.5938L7.375 27.7188V15.4688L13.5 21.5938ZM7.375 32.5312V30.7812L15.0312 23.125L25.5312 33.625H8.46875C7.8125 33.625 7.375 33.1875 7.375 32.5312ZM33.625 32.5312C33.625 33.1875 33.1875 33.625 32.5312 33.625H28.5938L14.375 19.4062L26.4062 7.375H32.5312C33.1875 7.375 33.625 7.8125 33.625 8.46875V32.5312Z" fill="white"/>
<path d="M25.9688 18.3125C25.3125 18.3125 24.875 18.75 24.875 19.4062C24.875 20.0625 25.4219 20.5 25.9688 20.5C26.625 20.5 27.0625 20.0625 27.0625 19.4062C27.0625 18.75 26.625 18.3125 25.9688 18.3125Z" fill="white"/>
</svg>
