<svg width="40" height="40" viewBox="0 0 40 40" fill="none" xmlns="http://www.w3.org/2000/svg">
<path d="M30.6667 27.6667H9.33333C8.36109 27.666 7.42887 27.2794 6.74139 26.5919C6.05391 25.9045 5.66737 24.9722 5.66667 24V10.6667C5.66737 9.69442 6.05391 8.7622 6.74139 8.07472C7.42887 7.38724 8.36109 7.00071 9.33333 7H30.6667C31.6389 7.00071 32.5711 7.38724 33.2586 8.07472C33.9461 8.7622 34.3326 9.69442 34.3333 10.6667V24C34.3326 24.9722 33.9461 25.9045 33.2586 26.5919C32.5711 27.2794 31.6389 27.666 30.6667 27.6667ZM9.33333 9C8.89152 9.00071 8.46801 9.17653 8.1556 9.48893C7.84319 9.80134 7.66737 10.2249 7.66667 10.6667V24C7.66737 24.4418 7.84319 24.8653 8.1556 25.1777C8.46801 25.4901 8.89152 25.666 9.33333 25.6667H30.6667C31.1085 25.666 31.532 25.4901 31.8444 25.1777C32.1568 24.8653 32.3326 24.4418 32.3333 24V10.6667C32.3326 10.2249 32.1568 9.80134 31.8444 9.48893C31.532 9.17653 31.1085 9.00071 30.6667 9H9.33333Z" fill="white"/>
<path d="M17.3333 22.3335C17.0681 22.3335 16.8138 22.2281 16.6262 22.0406C16.4387 21.8531 16.3333 21.5987 16.3333 21.3335V13.3335C16.3333 13.0683 16.4387 12.8139 16.6262 12.6264C16.8138 12.4389 17.0681 12.3335 17.3333 12.3335C17.5985 12.3335 17.8529 12.4389 18.0404 12.6264C18.228 12.8139 18.3333 13.0683 18.3333 13.3335V21.3335C18.3333 21.5987 18.228 21.8531 18.0404 22.0406C17.8529 22.2281 17.5985 22.3335 17.3333 22.3335ZM12 22.3335C11.7348 22.3335 11.4804 22.2281 11.2929 22.0406C11.1054 21.8531 11 21.5987 11 21.3335V16.0002C11 15.7349 11.1054 15.4806 11.2929 15.2931C11.4804 15.1055 11.7348 15.0002 12 15.0002C12.2652 15.0002 12.5196 15.1055 12.7071 15.2931C12.8946 15.4806 13 15.7349 13 16.0002V21.3335C13 21.5987 12.8946 21.8531 12.7071 22.0406C12.5196 22.2281 12.2652 22.3335 12 22.3335ZM22.6667 22.3335C22.4015 22.3335 22.1471 22.2281 21.9596 22.0406C21.772 21.8531 21.6667 21.5987 21.6667 21.3335V16.0002C21.6667 15.7349 21.772 15.4806 21.9596 15.2931C22.1471 15.1055 22.4015 15.0002 22.6667 15.0002C22.9319 15.0002 23.1862 15.1055 23.3738 15.2931C23.5613 15.4806 23.6667 15.7349 23.6667 16.0002V21.3335C23.6667 21.5987 23.5613 21.8531 23.3738 22.0406C23.1862 22.2281 22.9319 22.3335 22.6667 22.3335ZM28 22.3335C27.7348 22.3335 27.4804 22.2281 27.2929 22.0406C27.1054 21.8531 27 21.5987 27 21.3335V13.3335C27 13.0683 27.1054 12.8139 27.2929 12.6264C27.4804 12.4389 27.7348 12.3335 28 12.3335C28.2652 12.3335 28.5196 12.4389 28.7071 12.6264C28.8946 12.8139 29 13.0683 29 13.3335V21.3335C29 21.5987 28.8946 21.8531 28.7071 22.0406C28.5196 22.2281 28.2652 22.3335 28 22.3335Z" fill="white"/>
<path d="M25.3333 32.9998H14.6667C14.5147 32.9997 14.3648 32.9649 14.2283 32.8982C14.0918 32.8315 13.9722 32.7346 13.8787 32.6149C13.7852 32.4952 13.7201 32.3557 13.6885 32.2071C13.6568 32.0585 13.6594 31.9046 13.696 31.7572L15.0293 26.4238C15.0837 26.2075 15.2087 26.0156 15.3845 25.8784C15.5604 25.7412 15.777 25.6666 16 25.6665H24C24.2652 25.6665 24.5196 25.7719 24.7071 25.9594C24.8946 26.1469 25 26.4013 25 26.6665C25 26.9317 24.8946 27.1861 24.7071 27.3736C24.5196 27.5611 24.2652 27.6665 24 27.6665H16.78L15.9467 30.9998H24.0533L23.696 29.5758C23.6316 29.3184 23.6722 29.0459 23.8087 28.8184C23.9452 28.5909 24.1666 28.4269 24.424 28.3625C24.6814 28.2981 24.9539 28.3387 25.1814 28.4752C25.409 28.6117 25.573 28.8331 25.6373 29.0905L26.304 31.7572C26.3406 31.9046 26.3432 32.0585 26.3116 32.2071C26.2799 32.3557 26.2148 32.4952 26.1213 32.6149C26.0278 32.7346 25.9082 32.8315 25.7717 32.8982C25.6352 32.9649 25.4853 32.9997 25.3333 32.9998Z" fill="white"/>
<path d="M28 33H12C11.7348 33 11.4804 32.8946 11.2929 32.7071C11.1054 32.5196 11 32.2652 11 32C11 31.7348 11.1054 31.4804 11.2929 31.2929C11.4804 31.1054 11.7348 31 12 31H28C28.2652 31 28.5196 31.1054 28.7071 31.2929C28.8946 31.4804 29 31.7348 29 32C29 32.2652 28.8946 32.5196 28.7071 32.7071C28.5196 32.8946 28.2652 33 28 33Z" fill="white"/>
</svg>
