<svg width="40" height="40" viewBox="0 0 40 40" fill="none" xmlns="http://www.w3.org/2000/svg">
<g clip-path="url(#clip0_13_7086)">
<path d="M27 9.71429C27 8.68571 26.3143 8 25.2857 8H4.71429C3.68571 8 3 8.68571 3 9.71429C3 10.7429 3.68571 11.4286 4.71429 11.4286H13.2857V30.2857C13.2857 31.3143 13.9714 32 15 32C16.0286 32 16.7143 31.3143 16.7143 30.2857V11.4286H25.2857C26.3143 11.4286 27 10.7429 27 9.71429ZM35.5714 18.2857H25.2857C24.2571 18.2857 23.5714 18.9714 23.5714 20C23.5714 21.0286 24.2571 21.7143 25.2857 21.7143H28.7143V30.2857C28.7143 31.3143 29.4 32 30.4286 32C31.4571 32 32.1429 31.3143 32.1429 30.2857V21.7143H35.5714C36.6 21.7143 37.2857 21.0286 37.2857 20C37.2857 18.9714 36.6 18.2857 35.5714 18.2857Z" fill="white"/>
</g>
<defs>
<clipPath id="clip0_13_7086">
<rect width="40" height="40" fill="white"/>
</clipPath>
</defs>
</svg>
