<svg width="40" height="40" viewBox="0 0 40 40" fill="none" xmlns="http://www.w3.org/2000/svg">
<g clip-path="url(#clip0_13_7119)">
<path d="M31.5556 8H8.44444C7.65 8 7 8.66176 7 9.47059V13.8824C7 14.6912 7.65 15.3529 8.44444 15.3529C9.23889 15.3529 9.88889 14.6912 9.88889 13.8824V10.9412H18.5556V30.0588H15.6667C14.8722 30.0588 14.2222 30.7206 14.2222 31.5294C14.2222 32.3382 14.8722 33 15.6667 33H24.3333C25.1278 33 25.7778 32.3382 25.7778 31.5294C25.7778 30.7206 25.1278 30.0588 24.3333 30.0588H21.4444V10.9412H30.1111V13.8824C30.1111 14.6912 30.7611 15.3529 31.5556 15.3529C32.35 15.3529 33 14.6912 33 13.8824V9.47059C33 8.66176 32.35 8 31.5556 8Z" fill="white"/>
</g>
<defs>
<clipPath id="clip0_13_7119">
<rect width="40" height="40" fill="white"/>
</clipPath>
</defs>
</svg>
