<svg width="40" height="40" viewBox="0 0 40 40" fill="none" xmlns="http://www.w3.org/2000/svg">
<g clip-path="url(#clip0_13_7132)">
<path d="M13.5234 19L14.1289 15.3477H11.082L10.4766 19H8.54297L9.14844 15.3477H7.15625L7.46875 13.4336H9.46094L9.94922 10.4258H7.97656L8.28906 8.51172H10.2812L10.8672 4.85938H12.8008L12.2148 8.51172H15.2617L15.8477 4.85938H17.7617L17.1758 8.51172H19.168L18.8359 10.4258H16.8438L16.3555 13.4336H18.3477L18.0352 15.3477H16.043L15.4375 19H13.5234ZM11.3945 13.4336H14.4414L14.9297 10.4258H11.8828L11.3945 13.4336Z" fill="white"/>
<path d="M24.7852 34L25.6934 28.5215H21.123L20.2148 34H17.3145L18.2227 28.5215H15.2344L15.7031 25.6504H18.6914L19.4238 21.1387H16.4648L16.9336 18.2676H19.9219L20.8008 12.7891H23.7012L22.8223 18.2676H27.3926L28.2715 12.7891H31.1426L30.2637 18.2676H33.252L32.7539 21.1387H29.7656L29.0332 25.6504H32.0215L31.5527 28.5215H28.5645L27.6562 34H24.7852ZM21.5918 25.6504H26.1621L26.8945 21.1387H22.3242L21.5918 25.6504Z" fill="white"/>
</g>
<defs>
<clipPath id="clip0_13_7132">
<rect width="40" height="40" fill="white"/>
</clipPath>
</defs>
</svg>
