<svg width="40" height="40" viewBox="0 0 40 40" fill="none" xmlns="http://www.w3.org/2000/svg">
<g clip-path="url(#clip0_13_7139)">
<path d="M20 6C12.28 6 6 12.28 6 20C6 27.72 12.28 34 20 34C27.72 34 34 27.72 34 20C34 12.28 27.72 6 20 6ZM20 32C13.38 32 8 26.62 8 20C8 13.38 13.38 8 20 8C26.62 8 32 13.38 32 20C32 26.62 26.62 32 20 32Z" fill="white"/>
<path d="M26.94 19.12C26.98 19.41 27 19.7 27 20C27 21.61 26.47 23.12 25.46 24.38C25.11 24.81 25.18 25.44 25.61 25.79C25.8 25.93 26.02 26 26.24 26C26.53 26 26.82 25.87 27.02 25.63C28.3 24.04 29 22.04 29 20C29 19.62 28.98 19.24 28.93 18.88C28.86 18.33 28.37 17.94 27.81 18.01C27.26 18.08 26.88 18.58 26.94 19.12ZM20 13C20.3 13 20.59 13.02 20.88 13.05C21.43 13.12 21.93 12.73 22 12.18C22.07 11.63 21.68 11.13 21.13 11.06C20.75 11.02 20.38 11 20 11C15.04 11 11 15.04 11 20C11 22.04 11.7 24.04 12.98 25.63C13.18 25.87 13.47 26 13.76 26C13.98 26 14.2 25.93 14.38 25.78C14.81 25.43 14.88 24.8 14.53 24.37C13.53 23.12 13 21.61 13 20C13 16.14 16.14 13 20 13Z" fill="white"/>
<path d="M26.71 13.4401C26.36 13.0101 25.73 12.9501 25.3 13.3001L18.69 18.6901C18.6 18.7701 18.5 18.8601 18.42 18.9601C17.77 19.7601 17.89 20.9401 18.69 21.5901C19.49 22.2401 20.67 22.1201 21.32 21.3201L26.71 14.7101C27 14.3401 27.01 13.8101 26.71 13.4401Z" fill="white"/>
</g>
<defs>
<clipPath id="clip0_13_7139">
<rect width="40" height="40" fill="white"/>
</clipPath>
</defs>
</svg>
