<svg width="40" height="40" viewBox="0 0 40 40" fill="none" xmlns="http://www.w3.org/2000/svg">
<g clip-path="url(#clip0_13_7149)">
<path d="M32.6558 15.6865H30.6603V32.7202H32.6558V15.6865Z" fill="white"/>
<path d="M26.6823 23.3296H24.6215V32.7072H26.6823V23.3296Z" fill="white"/>
<path d="M20.6435 20.4336H18.5828V32.7067H20.6435V20.4336Z" fill="white"/>
<path d="M14.6048 25.3901H12.5441V32.7201H14.6048V25.3901Z" fill="white"/>
<path d="M8.56614 22.8726H6.57062V32.7067H8.56614V22.8726Z" fill="white"/>
<path d="M31.5732 7C30.0994 7 28.9126 8.18688 28.9126 9.66069C28.9126 10.065 29.0039 10.4563 29.1734 10.8084L26.3171 12.3735C25.7302 11.0302 24.165 10.4041 22.8217 10.978C21.9348 11.3562 21.3218 12.191 21.2305 13.1431L17.8785 13.417C17.3829 12.0344 15.8569 11.3171 14.4744 11.8127C13.3136 12.2301 12.5963 13.3778 12.7267 14.6038L9.81819 16.1689C8.97042 14.9821 7.31401 14.6951 6.1141 15.5429C4.92722 16.3907 4.64028 18.0471 5.48805 19.247C6.33582 20.4339 7.99223 20.7208 9.19215 19.873C10.1443 19.1948 10.5355 17.9688 10.1703 16.8602L12.9354 15.3733C13.5223 16.7167 15.0874 17.3428 16.4308 16.7559C17.409 16.3385 18.035 15.3733 18.035 14.3169C18.035 14.2778 18.035 14.2256 18.035 14.1865L21.2696 13.9126C21.5435 15.3603 22.939 16.2994 24.3737 16.0255C25.7302 15.7646 26.6692 14.4995 26.5258 13.13L29.6169 11.4345C30.6081 12.517 32.2906 12.5953 33.3731 11.604C34.4557 10.6128 34.5339 8.9303 33.5427 7.84777C33.034 7.31302 32.3167 7 31.5732 7Z" fill="white"/>
</g>
<defs>
<clipPath id="clip0_13_7149">
<rect width="40" height="40" fill="white"/>
</clipPath>
</defs>
</svg>
