<svg width="40" height="40" viewBox="0 0 40 40" fill="none" xmlns="http://www.w3.org/2000/svg">
<g clip-path="url(#clip0_13_7164)">
<path d="M34.6667 33.3333H8C7.64638 33.3333 7.30724 33.1929 7.05719 32.9428C6.80714 32.6928 6.66667 32.3536 6.66667 32V5.33333C6.66667 4.97971 6.52619 4.64057 6.27614 4.39052C6.02609 4.14048 5.68696 4 5.33333 4C4.97971 4 4.64057 4.14048 4.39052 4.39052C4.14048 4.64057 4 4.97971 4 5.33333V32C4 33.0609 4.42143 34.0783 5.17157 34.8284C5.92172 35.5786 6.93913 36 8 36H34.6667C35.0203 36 35.3594 35.8595 35.6095 35.6095C35.8595 35.3594 36 35.0203 36 34.6667C36 34.313 35.8595 33.9739 35.6095 33.7239C35.3594 33.4738 35.0203 33.3333 34.6667 33.3333Z" fill="white"/>
<path d="M24 30.6667C24.3536 30.6667 24.6928 30.5262 24.9428 30.2761C25.1929 30.0261 25.3333 29.687 25.3333 29.3333V20C25.3333 19.6464 25.1929 19.3072 24.9428 19.0572C24.6928 18.8071 24.3536 18.6667 24 18.6667C23.6464 18.6667 23.3072 18.8071 23.0572 19.0572C22.8071 19.3072 22.6667 19.6464 22.6667 20V29.3333C22.6667 29.687 22.8071 30.0261 23.0572 30.2761C23.3072 30.5262 23.6464 30.6667 24 30.6667ZM13.3333 30.6667C13.687 30.6667 14.0261 30.5262 14.2761 30.2761C14.5262 30.0261 14.6667 29.687 14.6667 29.3333V20C14.6667 19.6464 14.5262 19.3072 14.2761 19.0572C14.0261 18.8071 13.687 18.6667 13.3333 18.6667C12.9797 18.6667 12.6406 18.8071 12.3905 19.0572C12.1405 19.3072 12 19.6464 12 20V29.3333C12 29.687 12.1405 30.0261 12.3905 30.2761C12.6406 30.5262 12.9797 30.6667 13.3333 30.6667ZM29.3333 30.6667C29.687 30.6667 30.0261 30.5262 30.2761 30.2761C30.5262 30.0261 30.6667 29.687 30.6667 29.3333V13.3333C30.6667 12.9797 30.5262 12.6406 30.2761 12.3905C30.0261 12.1405 29.687 12 29.3333 12C28.9797 12 28.6406 12.1405 28.3905 12.3905C28.1405 12.6406 28 12.9797 28 13.3333V29.3333C28 29.687 28.1405 30.0261 28.3905 30.2761C28.6406 30.5262 28.9797 30.6667 29.3333 30.6667ZM18.6667 30.6667C19.0203 30.6667 19.3594 30.5262 19.6095 30.2761C19.8595 30.0261 20 29.687 20 29.3333V13.3333C20 12.9797 19.8595 12.6406 19.6095 12.3905C19.3594 12.1405 19.0203 12 18.6667 12C18.313 12 17.9739 12.1405 17.7239 12.3905C17.4738 12.6406 17.3333 12.9797 17.3333 13.3333V29.3333C17.3333 29.687 17.4738 30.0261 17.7239 30.2761C17.9739 30.5262 18.313 30.6667 18.6667 30.6667Z" fill="white"/>
</g>
<defs>
<clipPath id="clip0_13_7164">
<rect width="32" height="32" fill="white" transform="translate(4 4)"/>
</clipPath>
</defs>
</svg>
