<svg width="40" height="40" viewBox="0 0 40 40" fill="none" xmlns="http://www.w3.org/2000/svg">
<g clip-path="url(#clip0_13_7176)">
<path d="M12.202 6.87305H31.5935V9.79242H12.202V6.87305ZM12.202 12.8647H27.5436V15.7841H12.202V12.8647ZM12.202 18.8631H35.803V21.7824H12.202V18.8631ZM12.202 24.8548H25.921V27.7741H12.202V24.8548Z" fill="white"/>
<path d="M37 32.8745V34.7897H32.4314V35.6609C32.4314 35.8471 32.2851 35.9934 32.0989 35.9934C31.9127 35.9934 31.7664 35.8471 31.7664 35.6609V34.7963H25.4356V35.6675C25.4356 35.8537 25.2893 36 25.1031 36C24.9169 36 24.7706 35.8537 24.7706 35.6675V34.7963H18.4464V35.6675C18.4464 35.8537 18.3001 36 18.1139 36C17.9277 36 17.7814 35.8537 17.7814 35.6675V34.7963H11.4505V35.6675C11.4505 35.8537 11.3042 36 11.118 36C10.9318 36 10.7855 35.8537 10.7855 35.6675V34.7963H6.20366V30.2211H5.3325C5.1463 30.2211 5 30.0748 5 29.8886C5 29.7024 5.1463 29.5561 5.3325 29.5561H6.20366V23.2253H5.3325C5.1463 23.2253 5 23.079 5 22.8928C5 22.7066 5.1463 22.5603 5.3325 22.5603H6.20366V16.2361H5.3325C5.1463 16.2361 5 16.0898 5 15.9036C5 15.7174 5.1463 15.5711 5.3325 15.5711H6.20366V9.24023H5.3325C5.1463 9.24023 5 9.09393 5 8.90773C5 8.72153 5.1463 8.57523 5.3325 8.57523H6.20366V4H8.11887V8.57523H9.02993C9.21613 8.57523 9.36243 8.72153 9.36243 8.90773C9.36243 9.09393 9.21613 9.24023 9.02993 9.24023H8.12552V15.5644H9.02993C9.21613 15.5644 9.36243 15.7107 9.36243 15.8969C9.36243 16.0831 9.21613 16.2294 9.02993 16.2294H8.12552V22.5536H9.02993C9.21613 22.5536 9.36243 22.6999 9.36243 22.8861C9.36243 23.0723 9.21613 23.2186 9.02993 23.2186H8.12552V29.5428H9.02993C9.21613 29.5428 9.36243 29.6891 9.36243 29.8753C9.36243 30.0615 9.21613 30.2078 9.02993 30.2078H8.12552V32.8678H10.7855V31.9701C10.7855 31.7839 10.9318 31.6376 11.118 31.6376C11.3042 31.6376 11.4505 31.7839 11.4505 31.9701V32.8412H17.7747V31.9701C17.7747 31.7839 17.921 31.6376 18.1072 31.6376C18.2934 31.6376 18.4397 31.7839 18.4397 31.9701V32.8412H24.7639V31.9701C24.7639 31.7839 24.9102 31.6376 25.0964 31.6376C25.2826 31.6376 25.4289 31.7839 25.4289 31.9701V32.8412H31.7531V31.9701C31.7531 31.7839 31.8994 31.6376 32.0856 31.6376C32.2718 31.6376 32.4181 31.7839 32.4181 31.9701V32.8412L37 32.8745Z" fill="white"/>
</g>
<defs>
<clipPath id="clip0_13_7176">
<rect width="40" height="40" fill="white"/>
</clipPath>
</defs>
</svg>
