<svg width="40" height="40" viewBox="0 0 40 40" fill="none" xmlns="http://www.w3.org/2000/svg">
<g clip-path="url(#clip0_13_7184)">
<path d="M21.6667 3.3335C20.75 3.3335 20 4.0835 20 5.00016V18.3335C20 19.2502 20.75 20.0002 21.6667 20.0002H35C35.9167 20.0002 36.6667 19.2502 36.6667 18.3335C36.6667 10.0502 29.95 3.3335 21.6667 3.3335ZM23.3333 16.6668V6.7835C28.45 7.51683 32.4833 11.5502 33.2167 16.6668H23.3333Z" fill="white"/>
<path d="M34.7 23.4334C33.8333 23.1167 32.8833 23.5667 32.5667 24.4501C30.1167 31.4001 22.5 35.0334 15.55 32.5667C8.6 30.1167 4.96667 22.5001 7.43333 15.5501C8.78333 11.7501 11.7667 8.76672 15.55 7.43339C16.4167 7.13339 16.8833 6.18339 16.5667 5.31672C16.25 4.45005 15.3167 3.98339 14.45 4.28339C5.76667 7.35005 1.21667 16.8667 4.28333 25.5501C7.35 34.2334 16.8667 38.7834 25.55 35.7167C30.3 34.0334 34.0333 30.3001 35.7167 25.5501C36.0167 24.6834 35.5667 23.7334 34.7 23.4334Z" fill="white"/>
</g>
<defs>
<clipPath id="clip0_13_7184">
<rect width="40" height="40" fill="white"/>
</clipPath>
</defs>
</svg>
